<svg xmlns="http://www.w3.org/2000/svg" viewBox="0 0 64 64" role="img" aria-labelledby="title desc"><title id="title">AcmeLearn logo</title><desc id="desc">An open book forming a rising letter A</desc><rect width="64" height="64" rx="12" fill="#0b2037"></rect><path d="M13 43V23c8 0 14 2 19 7v21c-5-5-11-8-19-8Z" fill="#ff5a4f"></path><path d="M51 43V23c-8 0-14 2-19 7v21c5-5 11-8 19-8Z" fill="#8bd8cd"></path><path d="M22 38 32 16l10 22h-7l-3-8-3 8h-7Z" fill="#fff"></path><path d="M10 47c9 0 16 2 22 7 6-5 13-7 22-7" fill="none" stroke="#fff" stroke-width="3" stroke-linecap="round"></path></svg>